<svg width="256" height="256" viewBox="0 0 256 256" fill="none" xmlns="http://www.w3.org/2000/svg">
<path d="M256 128C256 198.692 198.692 256 128 256C57.3075 256 0 198.692 0 128C0 57.3075 57.3075 0 128 0C198.692 0 256 57.3075 256 128Z" fill="white"/>
<path d="M104 188C104 174.745 114.745 164 128 164V164C141.255 164 152 174.745 152 188V188C152 201.255 141.255 212 128 212V212C114.745 212 104 201.255 104 188V188Z" fill="#F91C51"/>
<path d="M164 68C164 54.7452 174.745 44 188 44V44C201.255 44 212 54.7452 212 68V68C212 81.2548 201.255 92 188 92V92C174.745 92 164 81.2548 164 68V68Z" fill="#F91C51"/>
<path d="M104 68C104 54.7452 114.745 44 128 44V44C141.255 44 152 54.7452 152 68V68C152 81.2548 141.255 92 128 92V92C114.745 92 104 81.2548 104 68V68Z" fill="#F91C51"/>
<path d="M44 68C44 54.7452 54.7452 44 68 44V44C81.2548 44 92 54.7452 92 68V68C92 81.2548 81.2548 92 68 92V92C54.7452 92 44 81.2548 44 68V68Z" fill="#F91C51"/>
<path d="M164 128C164 114.745 174.745 104 188 104V104C201.255 104 212 114.745 212 128V128C212 141.255 201.255 152 188 152V152C174.745 152 164 141.255 164 128V128Z" fill="#FFCC00"/>
<path d="M104 128C104 114.745 114.745 104 128 104V104C141.255 104 152 114.745 152 128V128C152 141.255 141.255 152 128 152V152C114.745 152 104 141.255 104 128V128Z" fill="#FFCC00"/>
<path d="M44 188C44 174.745 54.7452 164 68 164V164C81.2548 164 92 174.745 92 188V188C92 201.255 81.2548 212 68 212V212C54.7452 212 44 201.255 44 188V188Z" fill="#FFCC00"/>
<path d="M164 188C164 174.745 174.745 164 188 164V164C201.255 164 212 174.745 212 188V188C212 201.255 201.255 212 188 212V212C174.745 212 164 201.255 164 188V188Z" fill="#00CC6F"/>
<path d="M44 128C44 114.745 54.7452 104 68 104V104C81.2548 104 92 114.745 92 128V128C92 141.255 81.2548 152 68 152V152C54.7452 152 44 141.255 44 128V128Z" fill="#00CC6F"/>
</svg>
